<?xml version="1.0" encoding="UTF-8" standalone="no"?>
<svg
   xmlns:dc="http://purl.org/dc/elements/1.1/"
   xmlns:cc="http://creativecommons.org/ns#"
   xmlns:rdf="http://www.w3.org/1999/02/22-rdf-syntax-ns#"
   xmlns:svg="http://www.w3.org/2000/svg"
   xmlns="http://www.w3.org/2000/svg"
   version="1.1"
   id="svg2"
   viewBox="0 0 399.44267 368.9994"
   height="368.99939"
   width="399.44266">
  <defs
     id="defs4" />
  <metadata
     id="metadata7">
    <rdf:RDF>
      <cc:Work
         rdf:about="">
        <dc:format>image/svg+xml</dc:format>
        <dc:type
           rdf:resource="http://purl.org/dc/dcmitype/StillImage" />
        <dc:title></dc:title>
      </cc:Work>
    </rdf:RDF>
  </metadata>
  <g
     transform="translate(-186.16552,-192.94169)"
     id="layer1">
    <path
       id="path4147"
       d="m 404.78711,192.94336 c -2.583,0.0136 -5.0786,0.11657 -7.45508,0.31055 -25.14406,2.05257 -52.42106,11.85495 -76.99805,35.91992 -24.80635,24.28955 -20.95631,69.4487 -20.81445,71.01953 -2.40089,1.62597 -4.19414,3.99729 -5.43164,6.74805 -1.59852,3.55323 -2.37283,7.76442 -2.63477,12.25 -0.52386,8.97115 1.02729,19.07593 3.08985,27.06836 2.63128,10.19621 7.62563,16.59522 12.67578,21.51953 -0.16595,0.45413 -0.16178,0.95299 0.0117,1.40429 0,0 5.0188,13.76112 5.95508,20.78321 0.43813,3.28596 -0.012,10.56584 -0.63867,16.76953 -0.74286,4.48464 -0.25447,10.28628 -2.96876,13.41992 -0.19442,0.067 -8.00896,2.75955 -16.94531,5.70898 -9.04792,2.98627 -19.26071,6.21735 -23.05859,7.04297 -4.77153,1.0373 -7.53184,4.28398 -8.91406,7.09961 -0.9225,1.87917 -1.23909,3.33612 -1.40039,4.3125 l -72.05274,42.0293 c -2.35258,1.33063 -0.30055,4.84811 2.01563,3.45508 l 72.85742,-42.5 c 0.56492,-0.33029 0.93256,-0.91602 0.98437,-1.56836 0,0 0.15706,-1.87172 1.18555,-3.9668 1.02849,-2.09508 2.73302,-4.2047 6.17578,-4.95312 0.71286,-0.15497 1.61288,-0.38719 2.58789,-0.64844 -0.93105,0.52232 -1.28782,1.68374 -0.81055,2.63867 0,0 1.99036,4.03479 8.06055,10.36328 6.07019,6.3285 16.31225,15.14805 33.10938,25.32813 29.64734,17.96808 68.35879,18.84157 77.92187,18.76562 -0.60278,3.68694 -1.23484,7.48852 -1.89453,11.32031 -1.48144,8.60497 -3.04181,17.16259 -4.38477,23.79883 -0.67146,3.31812 -1.29075,6.15843 -1.81054,8.26172 -0.2599,1.05165 -0.49641,1.91999 -0.69336,2.55078 -0.19695,0.6308 -0.42352,1.08702 -0.34961,0.96875 -2.311,3.6976 -12.01758,16.51758 -12.01758,16.51758 -1.6613,2.12859 1.57549,4.59095 3.18359,2.42188 0,0 9.4868,-12.43474 12.22657,-16.81836 0.38958,-0.62334 0.53952,-1.14104 0.77539,-1.89649 0.23587,-0.75545 0.48795,-1.6853 0.75976,-2.78515 0.54363,-2.19972 1.16768,-5.07727 1.84571,-8.42774 1.35604,-6.70093 2.92037,-15.2833 4.40625,-23.91406 1.48588,-8.63076 2.89307,-17.30514 3.92968,-24.18164 0.51831,-3.43825 0.94422,-6.4252 1.24219,-8.74219 0.29797,-2.31699 0.47656,-3.84085 0.47656,-4.85351 0,-2.20716 -1.13453,-4.13719 -2.6289,-6.1211 -1.49438,-1.98391 -3.46597,-3.99274 -5.61524,-5.91406 -4.29854,-3.84264 -9.23195,-7.28297 -12.56054,-8.94727 -2.81183,-1.40591 -4.23517,-2.83411 -4.64258,-3.9082 -0.40741,-1.07409 -0.24138,-2.2223 1.28711,-4.1875 1.51904,-1.95305 2.50694,-2.48828 4.83594,-2.38477 2.32899,0.10351 6.01439,1.26317 11.51562,3.51368 5.1059,2.08877 11.64162,7.04537 16.74805,11.46679 5.10643,4.42143 8.83595,8.27539 8.83593,8.27539 0.88703,0.91667 2.3939,0.78003 3.10157,-0.28125 0,0 4.89921,-7.29643 12.60156,-12.59179 3.54662,-2.43831 12.86604,-6.23195 22.40625,-10.08594 8.67103,-3.50287 17.5521,-7.11175 23.36133,-10.57813 0.54755,-0.17705 1.12809,-0.35613 1.73437,-0.52148 1.31228,-0.35789 2.69791,-0.6429 3.81446,-0.72266 1.11654,-0.0797 1.9018,0.14092 1.99804,0.20508 1.60057,1.06704 3.5845,2.25922 5.03711,3.76563 1.21463,1.25961 2.03803,2.59935 2.16211,4.40429 -0.0169,0.17119 -0.0116,0.34384 0.0156,0.51368 -10e-4,0.19618 0.002,0.39012 -0.0156,0.59765 -0.19603,2.35235 -1.94316,6.33055 -4.00976,9.73438 -2.06661,3.40382 -4.6456,6.48952 -5.34961,7.05273 -0.0219,0.0184 -0.0434,0.0373 -0.0645,0.0566 -2.12366,0.24772 -8.80273,-0.23047 -8.80273,-0.23047 -3.66533,-0.7433 -21.90466,-1.62772 -14.11914,0.86136 0,0 8.03751,1.78612 13.17969,3.02735 4.36527,1.05368 9.08175,0.53987 11.17773,0.21484 1.71735,1.01406 3.88322,2.664 5.55859,5.08398 2.01784,2.91466 3.3794,6.84083 2.44922,12.42188 l 0.0605,-0.11719 c -0.0797,0.28954 -0.12303,0.59392 -0.0703,0.87109 0.12566,0.66078 0.43873,0.95875 0.62695,1.13672 0.37644,0.35595 0.55614,0.39999 0.74024,0.48828 0.36817,0.1766 0.70794,0.30038 1.13476,0.46485 0.85364,0.32893 1.97617,0.76761 3.14453,1.39453 2.33672,1.25385 4.70006,3.14474 5.51563,6.20312 0.83552,3.13323 0.0972,7.25598 -0.97852,10.54297 -1.07574,3.287 -2.37695,5.65625 -2.37695,5.65625 -0.64998,1.18361 0.0355,2.65793 1.35937,2.92383 0,0 4.24563,0.82774 7.33985,5.24805 1.34183,1.91691 1.75145,4.82517 0.89062,8.49804 -0.86083,3.6729 -2.99286,7.99585 -6.38672,12.35938 -3.71027,4.77035 -7.73748,11.98609 -11.38867,18.28125 -1.82559,3.14758 -3.55074,6.05989 -5.02734,8.25195 -1.4766,2.19207 -2.98584,3.65698 -3.10156,3.71485 -2.38502,1.19284 -0.59622,4.77043 1.78906,3.57812 1.90458,-0.95229 3.04543,-2.70497 4.63086,-5.05859 1.58542,-2.35362 3.33371,-5.31264 5.16992,-8.47852 3.67241,-6.33175 7.72514,-13.51101 11.08594,-17.83203 3.67721,-4.72785 6.08984,-9.49596 7.12304,-13.9043 1.03321,-4.40833 0.68588,-8.57123 -1.50781,-11.70507 -2.67944,-3.82778 -5.57805,-5.2624 -7.59766,-6.02344 0.52364,-1.05784 0.9934,-1.80459 1.79883,-4.26563 1.1971,-3.6578 2.22775,-8.37543 1.04297,-12.81836 -1.20474,-4.51775 -4.64992,-7.17319 -7.49023,-8.69726 -1.37315,-0.73681 -2.6105,-1.21471 -3.47657,-1.54883 0.60572,-5.81041 -0.88638,-10.50559 -3.21093,-13.86328 -1.83233,-2.6467 -3.95888,-4.30664 -5.90821,-5.56836 1.41211,-1.60379 2.90632,-3.59039 4.45703,-6.14453 1.95094,-3.21329 3.7607,-6.76012 4.38672,-10.08399 4.85091,1.49434 17.7003,5.60316 32.78321,11.72071 19.05081,7.7269 41.07127,18.57909 52.58593,30.26562 1.87239,1.90046 4.72272,-0.90885 2.84961,-2.80859 -12.4139,-12.59919 -34.67888,-23.35525 -53.93164,-31.16406 -17.11715,-6.94263 -31.18209,-11.26192 -34.24218,-12.18164 -0.44689,-2.38845 -1.68956,-4.36497 -3.12305,-5.85157 -1.95666,-2.02912 -4.26543,-3.36315 -5.69531,-4.3164 -1.27529,-0.8502 -2.65613,-0.9506 -4.03711,-0.88477 3.00381,-4.70933 3.91007,-11.28135 4.29101,-17.66211 0.51579,-8.63936 -0.0244,-17.49755 0.60157,-20.83594 0.708,-3.77603 2.85085,-10.76916 4.9375,-17.72461 2.08663,-6.95544 4.12622,-13.84573 4.67773,-18.25781 0.59985,-4.79881 -1.38422,-9.68965 -3.23828,-14.03711 -0.92703,-2.17373 -1.84931,-4.21088 -2.48047,-5.93359 -0.63116,-1.72271 -0.90863,-3.14811 -0.8418,-3.81641 0.0718,-0.71755 0.41877,-1.38331 1.18555,-2.25586 0.76678,-0.87254 1.92008,-1.85796 3.21289,-3.02148 2.58561,-2.32705 5.74734,-5.47675 7.15625,-10.54883 0.83431,-3.00353 0.26993,-6.67704 -0.72656,-10.77734 -0.99649,-4.1003 -2.53812,-8.55349 -4.14063,-12.5918 -1.6025,-4.03831 -3.26059,-7.64578 -4.52344,-10.05664 -0.63141,-1.20543 -1.11404,-2.06719 -1.6289,-2.73437 -0.0257,-0.0334 -0.0694,-0.0705 -0.0957,-0.10352 -1.11164,-27.29705 -5.51625,-34.87598 -17.44727,-52.27539 -6.5447,-9.54435 -19.68682,-16.00826 -34.25977,-20.05274 -10.92971,-3.03335 -22.69933,-4.65783 -33.24804,-4.84375 -0.87906,-0.0155 -1.75033,-0.0202 -2.61133,-0.0156 z m 0.0156,4.00391 c 10.77874,-0.0473 23.32521,1.53368 34.77344,4.71093 14.09013,3.91048 26.45412,10.32567 32.03125,18.45899 12.10843,17.65813 15.81851,23.36356 16.82227,51.46875 l 0.0176,-0.002 c 0.006,0.0467 -0.008,0.13207 -0.002,0.17774 0.0921,0.71711 0.56406,1.32869 1.23438,1.59961 0.24172,0.3863 0.457,0.70414 0.85547,1.46484 1.16784,2.22953 2.79343,5.75719 4.34765,9.67383 1.55423,3.91664 3.04354,8.23942 3.97266,12.0625 0.92912,3.82308 1.18619,7.21957 0.75781,8.76172 -1.11647,4.0193 -3.51141,6.42589 -5.97656,8.64453 -1.23258,1.10932 -2.47885,2.14458 -3.54297,3.35547 -1.06412,1.21089 -1.97937,2.69022 -2.16016,4.49805 -0.0527,0.52674 -0.0418,1.04878 0.01,1.57031 -0.51156,-0.93058 -1.02784,-1.85214 -1.52734,-2.78711 -1.8307,-3.42669 -3.51916,-6.80368 -4.66016,-9.58985 -1.141,-2.78615 -1.55078,-5.16991 -1.48047,-5.55664 0.33239,-1.82815 2.42373,-4.1166 4.64844,-5.75586 2.22471,-1.63925 4.33984,-2.64257 4.33984,-2.64257 1.94284,-0.8848 1.33384,-3.7902 -0.80078,-3.82032 -0.31465,-0.004 -0.62581,0.0662 -0.9082,0.20508 0,0 -2.43039,1.14278 -5.00391,3.03907 -2.57352,1.89627 -5.53318,4.53208 -6.21094,8.25976 -0.43476,2.3912 0.48041,4.77474 1.71485,7.78906 1.23443,3.01433 2.97131,6.47049 4.83398,9.95703 3.72535,6.9731 7.99954,14.14717 9.52735,17.32032 1.38739,2.8815 1.60918,6.62914 0.0547,9.92578 -1.55451,3.29664 -4.8444,6.3013 -11.07031,7.71094 -2.62062,0.40564 -4.37518,0.99317 -5.61328,2.17968 -1.2629,1.21028 -1.5,2.88764 -1.5,4.06446 0,1.67681 0.61312,3.18123 1.15234,4.52929 0.53923,1.34807 1.07813,2.42578 1.07813,2.42578 1.19284,2.38502 2.23704,0.82151 1.61383,-1.43192 -0.59848,-2.61758 -0.5421,-5.38097 -0.0818,-6.51149 0.46031,-1.13052 1.74745,-0.97683 4.08906,-1.32807 0.0491,-0.007 0.098,-0.0164 0.14649,-0.0273 3.95509,-0.8955 7.10669,-2.46235 9.49414,-4.4375 -0.5763,2.02288 -1.1827,4.09923 -1.81446,6.20507 -2.08024,6.93415 -4.22988,13.83154 -5.03711,18.13672 -0.88928,4.74284 -0.16773,13.05524 -0.66211,21.33594 -0.49435,8.2807 -2.30763,15.94859 -6.5625,18.78516 -0.34955,0.23304 -0.77677,0.47802 -1.17382,0.71875 -1.76294,0.59076 -3.03907,1.12304 -3.03907,1.12304 -0.52553,0.20811 -0.93848,0.62887 -1.13671,1.15821 -5.22995,2.61798 -12.17279,5.48778 -18.97657,8.23633 -9.52641,3.84841 -18.64118,7.3805 -23.17578,10.49804 -6.79135,4.66906 -10.63184,9.65561 -12.21875,11.83399 -1.08063,-1.0929 -3.14525,-3.24812 -7.43554,-6.96289 -5.24764,-4.54368 -11.84383,-9.68762 -17.84961,-12.14454 -5.61045,-2.29518 -9.5004,-3.65956 -12.85352,-3.80859 -3.35312,-0.14903 -6.15539,1.33315 -8.17187,3.92578 -2.00705,2.58049 -2.85069,5.47284 -1.86915,8.06055 0.98155,2.58771 3.34661,4.44381 6.59571,6.06836 2.73231,1.36616 7.64642,4.74432 11.68164,8.35156 2.01761,1.80362 3.83396,3.67774 5.08594,5.33984 1.25197,1.66211 1.82421,3.14211 1.82421,3.7129 0,0.37628 -0.15337,2.07167 -0.44531,4.34179 -0.29194,2.27013 -0.713,5.23846 -1.22851,8.65821 -0.39662,2.63095 -0.88687,5.69962 -1.37696,8.76171 -6.95286,0.0947 -46.80604,-0.17832 -76.49218,-18.16992 -16.53791,-10.02297 -26.49778,-18.62795 -32.29688,-24.67383 -1.4881,-1.55142 -2.68833,-2.91447 -3.66211,-4.09375 18.23183,-8.09529 27.01252,-13.79295 31.31055,-17.69726 5.68826,-4.70402 5.13617,-11.70041 5.72656,-17.47266 0.63606,-6.29694 1.19703,-13.41099 0.625,-17.70117 -0.66611,-4.99589 -2.8369,-12.00327 -4.41601,-16.67969 1.07738,0.93622 2.12227,1.85169 3.09179,2.75196 4.00667,3.72047 8.39221,3.75898 11.31445,2.60546 2.92226,-1.15351 4.69727,-3.27343 4.69727,-3.27343 1.76318,-2.0268 -1.30359,-4.65576 -3.03711,-2.60352 0,0 -1.25293,1.41573 -3.1289,2.15625 -1.876,0.74052 -4.05865,1.03107 -7.12305,-1.81445 -7.28254,-6.76236 -16.25245,-12.28196 -20.13281,-27.31836 -1.97805,-7.66495 -3.457,-17.51018 -2.97071,-25.83789 0.24315,-4.16386 0.98535,-7.93953 2.29102,-10.8418 1.30566,-2.90227 3.08632,-4.89111 5.57422,-5.92773 5.28713,-2.20297 12.40644,-1.13801 18.6875,2.47656 6.28106,3.61457 11.59713,9.67768 13.45703,16.88476 0.62525,2.64919 4.60598,1.6234 3.87304,-0.99804 -2.1807,-8.45027 -8.23052,-15.26568 -15.33398,-19.35352 -5.32759,-3.06588 -11.31893,-4.65548 -16.86523,-4.05664 -1.26283,0.13635 -2.49938,0.3957 -3.70313,0.76758 -0.38277,-8.14884 -0.97743,-46.09022 19.70703,-66.34375 23.91034,-23.41221 50.17197,-32.80299 74.52539,-34.79102 2.26391,-0.1848 4.65713,-0.28204 7.14453,-0.29296 z m -96.36132,109.99609 c -1.96504,-0.0997 -3.67218,0.22101 -5.20899,1.17383 -3.07361,1.90564 -4.42417,5.59387 -5.88281,11.24609 -0.73244,2.62116 3.24749,3.64675 3.87305,0.99805 1.3985,-5.41921 2.72651,-7.98154 4.11718,-8.84375 1.39068,-0.86222 3.8809,-0.76729 8.75391,0.625 4.18664,1.19618 6.47152,4.71838 7.78125,8.23828 1.29823,3.48898 1.47931,6.65142 1.48242,6.70703 -0.34857,4.85785 -0.5585,4.67779 -3.06445,10.76367 -0.87395,2.12246 -0.48953,4.35234 0.40625,6.12305 0.89577,1.77071 2.25178,3.23741 3.63672,4.47656 2.76987,2.47831 5.79687,4.07031 5.79687,4.07031 2.35547,1.25131 4.23243,-2.28189 1.87696,-3.5332 0,0 -2.68645,-1.44231 -5.00586,-3.51758 -1.15971,-1.03763 -2.19237,-2.22746 -2.73633,-3.30273 -0.54396,-1.07527 -0.65144,-1.88166 -0.27539,-2.79492 2.48498,-6.03496 2.99596,-6.95911 3.35937,-12.04688 0.007,-0.0897 0.009,-0.1797 0.004,-0.26953 0.002,-0.0514 0.002,-0.10289 0,-0.1543 0,0 -0.18306,-3.75734 -1.73047,-7.91601 -1.54741,-4.15867 -4.62023,-9.02851 -10.43359,-10.68945 -2.5635,-0.73244 -4.78496,-1.25379 -6.75,-1.35352 z m 0.48632,10.89648 c -0.58945,0.006 -1.14616,0.27201 -1.52148,0.72657 0,0 -3.92908,4.61872 -5.18164,11.9414 -1.25256,7.32269 0.24596,17.48221 10.24023,28.2168 1.81283,2.03772 4.83007,-0.77018 2.92774,-2.72461 -9.29144,-9.97969 -10.29347,-18.56962 -9.22461,-24.81836 1.06886,-6.24874 4.2832,-10.02344 4.2832,-10.02344 1.139,-1.29978 0.2047,-3.33487 -1.52344,-3.31836 z m 143.875,21.35157 c -0.65992,0.004 -1.27523,0.33392 -1.64453,0.88086 0,0 -1.72954,2.44556 -3.11132,5.84765 -0.1719,0.16573 -6.79768,6.58324 -8.78907,13.69531 -0.75751,2.58862 1.5455,3.68513 2.24443,1.08008 0.5925,-2.11609 3.52254,-4.39859 4.91378,-6.4082 0.0965,1.36764 0.41893,2.73675 1.09179,4.03906 1.40024,2.71013 4.2769,4.82976 8.64649,5.80078 2.63628,0.63248 3.52477,-3.35873 0.86914,-3.90429 -3.58536,-0.79675 -5.15936,-2.18098 -5.96094,-3.73243 -0.80158,-1.55145 -0.84108,-3.56846 -0.37891,-5.69726 0.92435,-4.2576 3.75977,-8.43555 3.75977,-8.43555 0.95346,-1.32917 -0.005,-3.17856 -1.64063,-3.16601 z m 9.53516,43.03515 c -0.49898,0.022 -1.00761,0.10053 -1.52539,0.25586 -1.46773,0.44032 -4.83699,1.67574 -8.42188,2.9336 -3.58487,1.25785 -7.40741,2.52731 -8.84765,2.83593 -2.11755,0.45376 -4.53885,1.50529 -6.55274,2.44727 -2.01388,0.94198 -3.57812,1.78906 -3.57812,1.78906 -2.34505,1.27083 -0.4388,4.78841 1.90625,3.51758 0,0 1.46673,-0.79467 3.36719,-1.68359 1.90045,-0.88893 4.27733,-1.85631 5.69531,-2.16016 2.0953,-0.44899 5.72152,-1.70513 9.33398,-2.97266 3.61246,-1.26753 7.18844,-2.5577 8.2461,-2.875 0.45425,-0.13627 1.82646,0.0212 3.47656,0.53125 1.6501,0.51003 3.5289,1.24844 5.49414,1.55078 0.31442,0.0482 0.63581,0.0208 0.9375,-0.0801 0.22991,-0.0766 2.16845,-0.0421 3.72656,0.28125 1.55811,0.32338 2.86328,0.73828 2.86328,0.73828 2.54167,0.8086 3.75457,-3.0039 1.2129,-3.8125 0,0 -1.4737,-0.4707 -3.26172,-0.8418 -1.52359,-0.31621 -3.19856,-0.56738 -4.91993,-0.25391 -1.31357,-0.20979 -3.06769,-0.84492 -4.87109,-1.40234 -0.91115,-0.28163 -1.8458,-0.57221 -2.81055,-0.71484 -0.48237,-0.0713 -0.97171,-0.10595 -1.4707,-0.084 z m 2.2832,15.66992 c -3.00496,0.17168 -6.02597,1.35078 -8.60351,2.51563 -3.43673,1.55314 -6.07422,3.26953 -6.07422,3.26953 -2.23698,1.45313 -0.0573,4.8086 2.17969,3.35547 0,0 2.4137,-1.56628 5.54297,-2.98047 3.12926,-1.41419 6.98545,-2.48789 9.12109,-2.04297 2.71445,0.56551 4.50133,1.61461 5.61328,2.48828 1.11195,0.87368 1.44727,1.4336 1.44727,1.4336 1.41378,2.36442 4.92736,0.10569 3.36328,-2.16211 0,0 -0.80015,-1.20821 -2.33985,-2.41797 -1.5397,-1.20976 -3.9211,-2.56063 -7.26757,-3.25781 -0.98132,-0.20445 -1.98077,-0.2584 -2.98243,-0.20118 z M 299.291,427.85352 c -5.04267,3.02056 -12.17127,6.72693 -22.2793,11.18359 -0.865,-1.2733 -1.20703,-1.96875 -1.20703,-1.96875 -0.31701,-0.68244 -0.9902,-1.12922 -1.74219,-1.15625 -0.0371,-3.8e-4 -0.0743,2.7e-4 -0.11133,0.002 5.10659,-1.41678 12.77648,-3.88715 19.93555,-6.25 2.05,-0.6766 3.54044,-1.18616 5.4043,-1.81054 z"
       style="color:#000000;font-style:normal;font-variant:normal;font-weight:normal;font-stretch:normal;font-size:medium;line-height:normal;font-family:sans-serif;text-indent:0;text-align:start;text-decoration:none;text-decoration-line:none;text-decoration-style:solid;text-decoration-color:#000000;letter-spacing:normal;word-spacing:normal;text-transform:none;direction:ltr;block-progression:tb;writing-mode:lr-tb;baseline-shift:baseline;text-anchor:start;white-space:normal;clip-rule:nonzero;display:inline;overflow:visible;visibility:visible;opacity:1;isolation:auto;mix-blend-mode:normal;color-interpolation:sRGB;color-interpolation-filters:linearRGB;solid-color:#000000;solid-opacity:1;fill:#ffffff;fill-opacity:1;fill-rule:nonzero;stroke:none;stroke-width:4;stroke-linecap:round;stroke-linejoin:round;stroke-miterlimit:4;stroke-dasharray:none;stroke-dashoffset:0;stroke-opacity:1;marker:none;color-rendering:auto;image-rendering:auto;shape-rendering:auto;text-rendering:auto;enable-background:accumulate" />
    <path
       id="path4161"
       d="m 477.04454,355.10441 c 0,0 -7.82868,-4.29315 -12.62691,-2.52538 -4.79822,1.76777 -6.81853,3.78807 -4.79822,5.05076 2.0203,1.26269 4.29315,1.26269 5.80838,-0.50508 1.51522,-1.76776 4.04061,-3.78807 11.61675,-2.0203 z"
       style="color:#000000;clip-rule:nonzero;display:inline;overflow:visible;visibility:visible;opacity:1;isolation:auto;mix-blend-mode:normal;color-interpolation:sRGB;color-interpolation-filters:linearRGB;solid-color:#000000;solid-opacity:1;fill:#ffffff;fill-opacity:1;fill-rule:nonzero;stroke:none;stroke-width:1;stroke-linecap:round;stroke-linejoin:round;stroke-miterlimit:4;stroke-dasharray:none;stroke-dashoffset:0;stroke-opacity:1;marker:none;color-rendering:auto;image-rendering:auto;shape-rendering:auto;text-rendering:auto;enable-background:accumulate" />
    <path
       id="path4167"
       d="m 399.26279,295.25287 c 0,0 14.89975,-10.35406 26.01143,-12.12183 11.11168,-1.76777 34.34519,1.01015 34.34519,1.01015 0,0 3.78807,2.77792 2.0203,7.82869 -1.76776,5.05076 -3.78807,4.79822 -3.78807,4.79822 0,0 -17.93021,-6.81853 -29.7995,-6.06092 -11.86929,0.75762 -28.78935,4.54569 -28.78935,4.54569 z"
       style="color:#000000;clip-rule:nonzero;display:inline;overflow:visible;visibility:visible;opacity:1;isolation:auto;mix-blend-mode:normal;color-interpolation:sRGB;color-interpolation-filters:linearRGB;solid-color:#000000;solid-opacity:1;fill:#ffffff;fill-opacity:1;fill-rule:nonzero;stroke:none;stroke-width:1;stroke-linecap:round;stroke-linejoin:round;stroke-miterlimit:4;stroke-dasharray:none;stroke-dashoffset:0;stroke-opacity:1;marker:none;color-rendering:auto;image-rendering:auto;shape-rendering:auto;text-rendering:auto;enable-background:accumulate" />
    <path
       id="path4169"
       d="m 488.40876,294.49526 c 0,0 9.84898,1.51523 11.36421,7.07106 1.51523,5.55584 0.50508,7.07107 0.50508,7.07107 0,0 -14.14214,-7.57614 -17.42513,-7.3236 -3.283,0.25253 5.55584,-6.81853 5.55584,-6.81853 z"
       style="color:#000000;clip-rule:nonzero;display:inline;overflow:visible;visibility:visible;opacity:1;isolation:auto;mix-blend-mode:normal;color-interpolation:sRGB;color-interpolation-filters:linearRGB;solid-color:#000000;solid-opacity:1;fill:#ffffff;fill-opacity:1;fill-rule:nonzero;stroke:none;stroke-width:1;stroke-linecap:round;stroke-linejoin:round;stroke-miterlimit:4;stroke-dasharray:none;stroke-dashoffset:0;stroke-opacity:1;marker:none;color-rendering:auto;image-rendering:auto;shape-rendering:auto;text-rendering:auto;enable-background:accumulate" />
    <ellipse
       ry="7.4498749"
       rx="6.3134532"
       cy="307.75351"
       cx="439.16382"
       id="path4171"
       style="color:#000000;clip-rule:nonzero;display:inline;overflow:visible;visibility:visible;opacity:1;isolation:auto;mix-blend-mode:normal;color-interpolation:sRGB;color-interpolation-filters:linearRGB;solid-color:#000000;solid-opacity:1;fill:#ffffff;fill-opacity:1;fill-rule:nonzero;stroke:none;stroke-width:1;stroke-linecap:round;stroke-linejoin:round;stroke-miterlimit:4;stroke-dasharray:none;stroke-dashoffset:0;stroke-opacity:1;marker:none;color-rendering:auto;image-rendering:auto;shape-rendering:auto;text-rendering:auto;enable-background:accumulate" />
    <ellipse
       ry="5.4295697"
       rx="4.0406103"
       cy="313.56189"
       cx="485.88339"
       id="path4173"
       style="color:#000000;clip-rule:nonzero;display:inline;overflow:visible;visibility:visible;opacity:1;isolation:auto;mix-blend-mode:normal;color-interpolation:sRGB;color-interpolation-filters:linearRGB;solid-color:#000000;solid-opacity:1;fill:#ffffff;fill-opacity:1;fill-rule:nonzero;stroke:none;stroke-width:1;stroke-linecap:round;stroke-linejoin:round;stroke-miterlimit:4;stroke-dasharray:none;stroke-dashoffset:0;stroke-opacity:1;marker:none;color-rendering:auto;image-rendering:auto;shape-rendering:auto;text-rendering:auto;enable-background:accumulate" />
    <circle
       r="3.2829957"
       cy="383.89377"
       cx="365.42267"
       id="path4236"
       style="color:#000000;clip-rule:nonzero;display:inline;overflow:visible;visibility:visible;opacity:1;isolation:auto;mix-blend-mode:normal;color-interpolation:sRGB;color-interpolation-filters:linearRGB;solid-color:#000000;solid-opacity:1;fill:#ffffff;fill-opacity:1;fill-rule:nonzero;stroke:none;stroke-width:4;stroke-linecap:round;stroke-linejoin:round;stroke-miterlimit:4;stroke-dasharray:none;stroke-dashoffset:0;stroke-opacity:1;marker:none;color-rendering:auto;image-rendering:auto;shape-rendering:auto;text-rendering:auto;enable-background:accumulate" />
  </g>
</svg>
